<svg width="62" height="90" viewBox="0 0 62 90" fill="none" xmlns="http://www.w3.org/2000/svg">
<path d="M55.8028 0.796875H5.99073C4.71433 0.801299 3.49181 1.31183 2.59135 2.21647C1.69089 3.12111 1.18602 4.34598 1.1875 5.62238V84.3388C1.18602 85.6152 1.69089 86.8401 2.59135 87.7447C3.49181 88.6493 4.71433 89.1599 5.99073 89.1643H55.8028C56.0887 89.1643 56.3629 89.0507 56.5651 88.8485C56.7673 88.6463 56.8809 88.3721 56.8809 88.0862C56.8809 87.8002 56.7673 87.526 56.5651 87.3238C56.3629 87.1216 56.0887 87.0081 55.8028 87.0081H5.99073C5.286 87.0043 4.61154 86.7212 4.11531 86.2207C3.61908 85.7203 3.3416 85.0435 3.34375 84.3388V5.62238C3.3416 4.91765 3.61908 4.24084 4.11531 3.74043C4.61154 3.24002 5.286 2.95688 5.99073 2.95312H55.8028C56.5075 2.95688 57.1819 3.24002 57.6782 3.74043C58.1744 4.24084 58.4519 4.91765 58.4497 5.62238V48.406C58.4497 48.6919 58.5633 48.9661 58.7655 49.1683C58.9677 49.3705 59.2419 49.4841 59.5279 49.4841C59.8138 49.4841 60.088 49.3705 60.2902 49.1683C60.4924 48.9661 60.606 48.6919 60.606 48.406V5.62238C60.6075 4.34597 60.1027 3.12107 59.2022 2.21642C58.3017 1.31177 57.0792 0.801252 55.8028 0.796875Z" fill="white" fill-opacity="0.48"/>
<path d="M55.8028 0.546875H55.8036C57.1462 0.551481 58.4322 1.08848 59.3794 2.04005C60.3266 2.99162 60.8576 4.28006 60.856 5.62268M55.8028 0.546875L60.606 5.62238M55.8028 0.546875L5.99073 0.546874L5.98986 0.546877C4.64726 0.55153 3.36133 1.08854 2.41416 2.0401C1.46703 2.99163 0.935981 4.27998 0.937503 5.62253M55.8028 0.546875L0.937503 5.62253M60.856 5.62268L60.606 5.62238M60.856 5.62268V5.62238H60.606M60.856 5.62268V48.406C60.856 48.7582 60.7161 49.096 60.467 49.3451C60.2179 49.5942 59.8801 49.7341 59.5279 49.7341C59.1756 49.7341 58.8378 49.5942 58.5887 49.3451C58.3397 49.096 58.1997 48.7582 58.1997 48.406V5.62238V5.62162C58.2017 4.98309 57.9503 4.36986 57.5007 3.91646C57.0512 3.46322 56.4404 3.2067 55.8021 3.20312M60.606 5.62238V48.406C60.606 48.6919 60.4924 48.9661 60.2902 49.1683C60.088 49.3705 59.8138 49.4841 59.5279 49.4841C59.2419 49.4841 58.9677 49.3705 58.7655 49.1683C58.5633 48.9661 58.4497 48.6919 58.4497 48.406V5.62238C58.4519 4.91765 58.1744 4.24084 57.6782 3.74043C57.1819 3.24002 56.5075 2.95688 55.8028 2.95312M55.8021 3.20312H55.8028V2.95312M55.8021 3.20312H5.99141M55.8021 3.20312C55.8019 3.20312 55.8017 3.20312 55.8014 3.20312L55.8028 2.95312M55.8028 2.95312H5.99073M3.34375 84.3388C3.3416 85.0435 3.61908 85.7203 4.11531 86.2207C4.61154 86.7212 5.286 87.0043 5.99073 87.0081M3.34375 84.3388L55.8028 0.796875H5.99073C4.71433 0.801299 3.49181 1.31183 2.59135 2.21647C1.69089 3.12111 1.18602 4.34598 1.1875 5.62238M3.34375 84.3388V5.62238C3.3416 4.91765 3.61908 4.24084 4.11531 3.74043C4.61154 3.24002 5.286 2.95688 5.99073 2.95312M3.34375 84.3388L5.99141 3.20312M5.99073 87.0081H55.8028C56.0887 87.0081 56.3629 87.1216 56.5651 87.3238C56.7673 87.526 56.8809 87.8002 56.8809 88.0862C56.8809 88.3721 56.7673 88.6463 56.5651 88.8485C56.3629 89.0507 56.0887 89.1643 55.8028 89.1643H5.99073C4.71433 89.1599 3.49181 88.6493 2.59135 87.7447C1.69089 86.8401 1.18602 85.6152 1.1875 84.3388M5.99073 87.0081V86.7581H5.99206L5.99073 87.0081ZM1.1875 84.3388V5.62238M1.1875 84.3388H0.937503V84.3387V5.62253M1.1875 84.3388L0.937503 5.62253M1.1875 5.62238H0.937503V5.62253M1.1875 5.62238L0.937503 5.62267C0.937503 5.62262 0.937503 5.62258 0.937503 5.62253M5.99141 3.20312H5.99073V2.95312M5.99141 3.20312C5.99162 3.20312 5.99184 3.20312 5.99206 3.20312L5.99073 2.95312" stroke="white" stroke-opacity="0.48" stroke-width="0.5"/>
</svg>
